<svg width="35" height="35" viewBox="0 0 35 35" fill="none" xmlns="http://www.w3.org/2000/svg">
<g clip-path="url(#clip0_63_1009)">
<path d="M33.9365 13.7357C31.6746 10.052 26.5296 3.87158 17.4996 3.87158C8.46965 3.87158 3.32465 10.052 1.06277 13.7357C0.363542 14.8667 -0.00683594 16.1701 -0.00683594 17.4997C-0.00683594 18.8294 0.363542 20.1327 1.06277 21.2637C3.32465 24.9474 8.46965 31.1278 17.4996 31.1278C26.5296 31.1278 31.6746 24.9474 33.9365 21.2637C34.6357 20.1327 35.0061 18.8294 35.0061 17.4997C35.0061 16.1701 34.6357 14.8667 33.9365 13.7357ZM31.4501 19.7368C29.5076 22.8955 25.1107 28.2112 17.4996 28.2112C9.88861 28.2112 5.49173 22.8955 3.54923 19.7368C3.1338 19.0646 2.91376 18.2899 2.91376 17.4997C2.91376 16.7095 3.1338 15.9348 3.54923 15.2626C5.49173 12.1039 9.88861 6.78825 17.4996 6.78825C25.1107 6.78825 29.5076 12.098 31.4501 15.2626C31.8655 15.9348 32.0855 16.7095 32.0855 17.4997C32.0855 18.2899 31.8655 19.0646 31.4501 19.7368Z" fill="#0D0D0D"/>
<path d="M17.4997 10.208C16.0575 10.208 14.6478 10.6357 13.4486 11.4369C12.2495 12.2381 11.3149 13.3769 10.7631 14.7093C10.2112 16.0417 10.0668 17.5078 10.3481 18.9222C10.6295 20.3367 11.3239 21.6359 12.3437 22.6557C13.3634 23.6754 14.6627 24.3699 16.0771 24.6512C17.4916 24.9326 18.9577 24.7882 20.2901 24.2363C21.6225 23.6844 22.7613 22.7498 23.5625 21.5507C24.3637 20.3516 24.7913 18.9418 24.7913 17.4997C24.789 15.5665 24.0201 13.7132 22.6531 12.3462C21.2862 10.9793 19.4328 10.2103 17.4997 10.208ZM17.4997 21.8747C16.6344 21.8747 15.7885 21.6181 15.0691 21.1374C14.3496 20.6566 13.7888 19.9733 13.4577 19.1739C13.1266 18.3745 13.0399 17.4948 13.2087 16.6462C13.3776 15.7975 13.7942 15.0179 14.4061 14.4061C15.0179 13.7942 15.7975 13.3775 16.6462 13.2087C17.4948 13.0399 18.3745 13.1266 19.1739 13.4577C19.9733 13.7888 20.6566 14.3496 21.1374 15.0691C21.6181 15.7885 21.8747 16.6344 21.8747 17.4997C21.8747 18.66 21.4137 19.7728 20.5933 20.5933C19.7728 21.4137 18.66 21.8747 17.4997 21.8747Z" fill="#0D0D0D"/>
</g>
<defs>
<clipPath id="clip0_63_1009">
<rect width="35" height="35" fill="white"/>
</clipPath>
</defs>
</svg>
