<svg width="35" height="35" viewBox="0 0 35 35" fill="none" xmlns="http://www.w3.org/2000/svg">
<g clip-path="url(#clip0_63_1057)">
<path d="M25.5211 2.79492C23.8789 2.82046 22.2726 3.27887 20.8643 4.12386C19.4559 4.96884 18.2955 6.17048 17.5002 7.60742C16.7049 6.17048 15.5445 4.96884 14.1362 4.12386C12.7279 3.27887 11.1215 2.82046 9.47939 2.79492C6.8616 2.90866 4.39521 4.05383 2.61907 5.98026C0.842936 7.90669 -0.0985789 10.4578 0.000224005 13.0762C0.000224005 19.7072 6.97981 26.9493 12.8336 31.8595C14.1405 32.9578 15.793 33.56 17.5002 33.56C19.2074 33.56 20.8599 32.9578 22.1669 31.8595C28.0206 26.9493 35.0002 19.7072 35.0002 13.0762C35.099 10.4578 34.1575 7.90669 32.3814 5.98026C30.6052 4.05383 28.1389 2.90866 25.5211 2.79492ZM20.2929 29.6283C19.5112 30.2865 18.5222 30.6475 17.5002 30.6475C16.4783 30.6475 15.4892 30.2865 14.7075 29.6283C7.2146 23.3414 2.91689 17.3097 2.91689 13.0762C2.8172 11.231 3.45117 9.42119 4.68055 8.04157C5.90992 6.66194 7.63494 5.82439 9.47939 5.71159C11.3238 5.82439 13.0489 6.66194 14.2782 8.04157C15.5076 9.42119 16.1416 11.231 16.0419 13.0762C16.0419 13.4629 16.1955 13.8339 16.469 14.1074C16.7425 14.3809 17.1135 14.5345 17.5002 14.5345C17.887 14.5345 18.2579 14.3809 18.5314 14.1074C18.8049 13.8339 18.9586 13.4629 18.9586 13.0762C18.8589 11.231 19.4928 9.42119 20.7222 8.04157C21.9516 6.66194 23.6766 5.82439 25.5211 5.71159C27.3655 5.82439 29.0905 6.66194 30.3199 8.04157C31.5493 9.42119 32.1833 11.231 32.0836 13.0762C32.0836 17.3097 27.7859 23.3414 20.2929 29.6224V29.6283Z" fill="#0D0D0D"/>
</g>
<defs>
<clipPath id="clip0_63_1057">
<rect width="35" height="35" fill="white"/>
</clipPath>
</defs>
</svg>
