<svg width="50" height="50" viewBox="0 0 50 50" fill="none" xmlns="http://www.w3.org/2000/svg">
<path d="M40.4991 27.084C40.0408 27.084 39.5616 26.9382 39.1033 26.834C38.1751 26.6295 37.263 26.3579 36.3741 26.0215C35.4076 25.6699 34.3453 25.6882 33.3914 26.0728C32.4376 26.4574 31.6597 27.1812 31.2074 28.1048L30.7491 29.0423C28.7199 27.9135 26.8553 26.5116 25.2074 24.8757C23.5715 23.2278 22.1696 21.3632 21.0408 19.334L21.9158 18.7507C22.8395 18.2984 23.5632 17.5205 23.9478 16.5667C24.3325 15.6129 24.3507 14.5505 23.9991 13.584C23.6683 12.6932 23.3969 11.7815 23.1866 10.8548C23.0824 10.3965 22.9991 9.91733 22.9366 9.43816C22.6836 7.9707 21.915 6.64179 20.7692 5.69074C19.6233 4.7397 18.1756 4.22901 16.6866 4.25066H10.4366C9.53876 4.24223 8.64963 4.42736 7.82976 4.79343C7.00988 5.15951 6.27851 5.69794 5.68542 6.37208C5.09234 7.04622 4.65148 7.84023 4.39284 8.70007C4.1342 9.5599 4.06386 10.4654 4.18661 11.3548C5.29648 20.0827 9.2825 28.1921 15.5151 34.402C21.7476 40.6119 29.8714 44.5684 38.6033 45.6465H39.3949C40.9312 45.6488 42.4145 45.0851 43.5616 44.0632C44.2207 43.4737 44.7472 42.751 45.1063 41.943C45.4655 41.135 45.649 40.2599 45.6449 39.3757V33.1257C45.6194 31.6785 45.0925 30.2851 44.154 29.1833C43.2155 28.0815 41.9237 27.3395 40.4991 27.084ZM41.5408 39.584C41.5404 39.8798 41.477 40.1721 41.3549 40.4415C41.2328 40.711 41.0547 40.9513 40.8324 41.1465C40.5997 41.3475 40.3275 41.4976 40.0333 41.5873C39.7391 41.677 39.4294 41.7043 39.1241 41.6673C31.3218 40.6669 24.0746 37.0975 18.5256 31.5221C12.9766 25.9467 9.44163 18.6826 8.47828 10.8757C8.44512 10.5705 8.47418 10.2618 8.5637 9.96814C8.65322 9.67452 8.80134 9.40209 8.99911 9.16733C9.19434 8.9451 9.43466 8.767 9.70407 8.64486C9.97348 8.52273 10.2658 8.45937 10.5616 8.45899H16.8116C17.2961 8.44821 17.7692 8.60666 18.1494 8.90706C18.5297 9.20746 18.7933 9.63102 18.8949 10.1048C18.9783 10.6743 19.0824 11.2368 19.2074 11.7923C19.4481 12.8905 19.7684 13.9698 20.1658 15.0215L17.2491 16.3757C16.9997 16.4901 16.7754 16.6526 16.589 16.854C16.4026 17.0553 16.2579 17.2915 16.163 17.549C16.0682 17.8064 16.0251 18.0801 16.0363 18.3542C16.0475 18.6284 16.1127 18.8976 16.2283 19.1465C19.2266 25.5689 24.3892 30.7315 30.8116 33.7298C31.3188 33.9382 31.8877 33.9382 32.3949 33.7298C32.6548 33.6369 32.8935 33.4933 33.0974 33.3073C33.3012 33.1213 33.4661 32.8967 33.5824 32.6465L34.8741 29.7298C35.9511 30.115 37.0503 30.435 38.1658 30.6882C38.7213 30.8132 39.2838 30.9173 39.8533 31.0007C40.3271 31.1023 40.7506 31.3659 41.051 31.7462C41.3514 32.1264 41.5099 32.5995 41.4991 33.084L41.5408 39.584Z" fill="#0D0D0D"/>
</svg>
