<svg width="35" height="35" viewBox="0 0 35 35" fill="none" xmlns="http://www.w3.org/2000/svg">
<g clip-path="url(#clip0_49_1310)">
<path d="M34.5724 32.5117L25.8676 23.8069C28.2398 20.9056 29.4061 17.2037 29.1253 13.4666C28.8445 9.72961 27.1381 6.24347 24.3591 3.72928C21.58 1.2151 17.941 -0.134757 14.1946 -0.0410859C10.4482 0.0525855 6.88112 1.58262 4.2312 4.23254C1.58128 6.88247 0.0512427 10.4495 -0.0424287 14.1959C-0.1361 17.9423 1.21376 21.5814 3.72794 24.3604C6.24212 27.1395 9.72827 28.8459 13.4653 29.1266C17.2023 29.4074 20.9043 28.2411 23.8055 25.8689L32.5103 34.5737C32.7854 34.8394 33.1537 34.9864 33.5361 34.9831C33.9185 34.9797 34.2842 34.8264 34.5546 34.556C34.825 34.2856 34.9784 33.9198 34.9817 33.5374C34.985 33.1551 34.838 32.7867 34.5724 32.5117ZM14.583 26.251C12.2756 26.251 10.0199 25.5668 8.10136 24.2848C6.18279 23.0029 4.68744 21.1808 3.80442 19.049C2.9214 16.9172 2.69036 14.5714 3.14052 12.3083C3.59068 10.0452 4.70182 7.96639 6.33344 6.33478C7.96505 4.70317 10.0439 3.59202 12.307 3.14186C14.5701 2.6917 16.9159 2.92274 19.0477 3.80576C21.1795 4.68879 23.0015 6.18413 24.2835 8.10271C25.5654 10.0213 26.2497 12.2769 26.2497 14.5844C26.2462 17.6775 25.0159 20.6429 22.8288 22.8301C20.6416 25.0173 17.6761 26.2476 14.583 26.251Z" fill="#0D0D0D"/>
</g>
<defs>
<clipPath id="clip0_49_1310">
<rect width="35" height="35" fill="white"/>
</clipPath>
</defs>
</svg>
