<svg width="60" height="60" viewBox="0 0 60 60" fill="none" xmlns="http://www.w3.org/2000/svg">
<path d="M30 2.3999C45.2436 2.3999 57.6 14.7563 57.6 29.9999C57.6 45.2435 45.2436 57.5999 30 57.5999C14.7564 57.5999 2.40002 45.2435 2.40002 29.9999C2.40002 14.7563 14.7564 2.3999 30 2.3999ZM39.5208 41.2499C40.0284 39.6923 42.4068 24.1691 42.7008 21.1103C42.7896 20.1839 42.4968 19.5683 41.9232 19.2935C41.2296 18.9599 40.2024 19.1267 39.0108 19.5563C37.3764 20.1455 16.482 29.0171 15.2748 29.5307C14.13 30.0167 13.0476 30.5471 13.0476 31.3151C13.0476 31.8551 13.368 32.1587 14.2512 32.4743C15.1704 32.8019 17.4852 33.5039 18.852 33.8807C20.1684 34.2443 21.6672 33.9287 22.5072 33.4067C23.3976 32.8535 33.6732 25.9775 34.4112 25.3751C35.148 24.7727 35.736 25.5443 35.1336 26.1479C34.5312 26.7503 27.4776 33.5963 26.5476 34.5443C25.4184 35.6951 26.22 36.8879 26.9772 37.3655C27.8424 37.9103 34.0644 42.0839 35.0016 42.7535C35.9388 43.4231 36.8892 43.7267 37.7592 43.7267C38.6292 43.7267 39.0876 42.5807 39.5208 41.2499Z" fill="#0D0D0D"/>
</svg>
