<svg width="60" height="60" viewBox="0 0 60 60" fill="none" xmlns="http://www.w3.org/2000/svg">
<path d="M30.6002 2.25C15.3818 2.25 3.00018 14.6316 3.00018 29.85C3.00018 34.602 4.22778 39.2748 6.55578 43.398L3.04458 55.926C2.92938 56.3376 3.04098 56.7792 3.33858 57.0852C3.56778 57.3216 3.87978 57.45 4.20018 57.45C4.29618 57.45 4.39338 57.438 4.48818 57.4152L17.5634 54.1764C21.5558 56.3196 26.0522 57.45 30.6002 57.45C45.8186 57.45 58.2002 45.0684 58.2002 29.85C58.2002 14.6316 45.8186 2.25 30.6002 2.25ZM44.4842 39.5892C43.8938 41.2236 41.0618 42.7152 39.701 42.9156C38.4794 43.0944 36.9338 43.1712 35.237 42.6384C34.2086 42.3144 32.8886 41.8848 31.1978 41.1636C24.0902 38.1324 19.4486 31.0656 19.0934 30.5988C18.7394 30.132 16.2002 26.8056 16.2002 23.3628C16.2002 19.92 18.0302 18.2268 18.6806 17.526C19.331 16.8252 20.0978 16.65 20.5706 16.65C21.0434 16.65 21.515 16.656 21.929 16.6752C22.3646 16.6968 22.949 16.5108 23.5238 17.8764C24.1142 19.278 25.5314 22.7208 25.7066 23.0724C25.8842 23.4228 26.0018 23.832 25.7666 24.2988C25.5314 24.7656 25.4138 25.0572 25.0586 25.4664C24.7034 25.8756 24.3146 26.3784 23.9954 26.6928C23.6402 27.042 23.2718 27.42 23.6846 28.1208C24.0974 28.8216 25.5194 31.1124 27.6266 32.9676C30.3326 35.3508 32.6162 36.09 33.3242 36.4404C34.0322 36.7908 34.4462 36.732 34.859 36.2652C35.2718 35.7972 36.6302 34.2216 37.1018 33.522C37.5734 32.8224 38.0462 32.9376 38.6966 33.1716C39.347 33.4044 42.8306 35.0964 43.5386 35.4468C44.2466 35.7972 44.7194 35.9724 44.897 36.264C45.0746 36.5544 45.0746 37.956 44.4842 39.5892Z" fill="#0D0D0D"/>
</svg>
