<svg xmlns="http://www.w3.org/2000/svg" width="57" height="58" viewBox="0 0 57 58" fill="none">
  <g clip-path="url(#clip0_63_1591)">
    <path d="M48.6939 8.42859C43.3355 2.9965 36.2105 0.00331424 28.6194 0C12.9766 0 0.246474 12.8923 0.240211 28.7388C0.238389 33.8042 1.54484 38.7487 4.02804 43.1073L0.00195312 58L15.0461 54.0037C19.191 56.2937 23.8579 57.5004 28.6072 57.5024H28.6192H28.6194C44.2596 57.5024 56.9916 44.6078 56.9983 28.7621C57.0009 21.0821 54.0515 13.8611 48.6939 8.42859ZM28.6194 52.6483H28.6101C24.3769 52.646 20.2257 51.4947 16.6048 49.318L15.7431 48.8005L6.81559 51.1718L9.19911 42.357L8.63767 41.4533C6.27635 37.6497 5.02977 33.2541 5.03155 28.7406C5.03674 15.5696 15.6175 4.85428 28.6283 4.85428C34.9288 4.85693 40.8505 7.34488 45.3042 11.8599C49.7576 16.3748 52.2084 22.3768 52.2065 28.76C52.201 41.9316 41.6199 52.6483 28.6194 52.6483Z" fill="#E0E0E0"/>
    <path d="M1.30469 56.3474L5.14687 42.135C2.77649 37.9755 1.52995 33.2565 1.53145 28.4234C1.53766 13.3011 13.6864 0.998047 28.6133 0.998047C35.8581 1.00136 42.6577 3.85767 47.7701 9.04176C52.8837 14.2258 55.698 21.1165 55.6951 28.4449C55.6889 43.5676 43.5394 55.8717 28.6144 55.8717C28.6133 55.8717 28.6151 55.8717 28.6144 55.8717H28.6023C24.07 55.8702 19.6166 54.7176 15.6613 52.5338L1.30469 56.3474Z" fill="url(#paint0_linear_63_1591)"/>
    <path fill-rule="evenodd" clip-rule="evenodd" d="M21.6066 16.5378C21.0815 15.3552 20.5287 15.3316 20.0292 15.3109C19.6207 15.2931 19.1529 15.2942 18.686 15.2942C18.2186 15.2942 17.4591 15.4721 16.8169 16.1827C16.1743 16.8933 14.3633 18.611 14.3633 22.1047C14.3633 25.5987 16.8753 28.9747 17.2255 29.4489C17.576 29.9224 22.0747 37.321 29.1993 40.1673C35.1204 42.5328 36.3254 42.0623 37.6106 41.9439C38.8958 41.8255 41.7577 40.2265 42.3419 38.5682C42.926 36.9104 42.926 35.4893 42.7508 35.1922C42.5755 34.8963 42.1082 34.7187 41.4071 34.3636C40.7061 34.0085 37.2601 32.2904 36.6175 32.0537C35.9749 31.8169 35.5075 31.6986 35.0402 32.4095C34.5728 33.1197 33.2302 34.7187 32.8213 35.1922C32.4124 35.6668 32.0034 35.7259 31.3024 35.3708C30.6013 35.0147 28.3438 34.2656 25.6656 31.8465C23.5819 29.9645 22.1751 27.64 21.7661 26.9291C21.3572 26.2189 21.7223 25.8342 22.0739 25.4802C22.3886 25.1621 22.7749 24.6513 23.1255 24.2366C23.4752 23.822 23.5921 23.5261 23.8258 23.0526C24.0594 22.5784 23.9426 22.1638 23.7673 21.8087C23.5921 21.4536 22.2298 17.9419 21.6066 16.5378Z" fill="white"/>
    <path d="M48.462 8.33723C43.1652 2.9675 36.122 0.00873268 28.618 0.00537109C13.1548 0.00537109 0.570818 12.7497 0.564602 28.4143C0.56278 33.4216 1.85423 38.3093 4.30892 42.6178L0.329102 57.3395L15.2005 53.3891C19.2979 55.6528 23.9113 56.8457 28.606 56.8476H28.6179H28.618C44.0788 56.8476 56.6645 44.101 56.6711 28.4372C56.6737 20.8455 53.7582 13.7073 48.462 8.33723ZM28.618 52.0493H28.6089C24.4243 52.0471 20.3206 50.909 16.7414 48.7573L15.8895 48.2457L7.0645 50.5898L9.42063 41.8762L8.86565 40.9829C6.53144 37.2229 5.29916 32.8778 5.30098 28.4161C5.30607 15.3963 15.7654 4.80402 28.6268 4.80402C34.8551 4.80662 40.7087 7.26602 45.1114 11.7292C49.5136 16.1923 51.9362 22.1254 51.9344 28.4354C51.9289 41.4556 41.4692 52.0493 28.618 52.0493Z" fill="white"/>
  </g>
  <defs>
    <linearGradient id="paint0_linear_63_1591" x1="28.4999" y1="56.3474" x2="28.4999" y2="0.998139" gradientUnits="userSpaceOnUse">
      <stop stop-color="#20B038"/>
      <stop offset="1" stop-color="#60D66A"/>
    </linearGradient>
    <clipPath id="clip0_63_1591">
      <rect width="57" height="58" fill="white"/>
    </clipPath>
  </defs>
</svg>